<svg version="1.2" xmlns="http://www.w3.org/2000/svg" viewBox="0 0 1080 1080" width="1080" height="1080">
	<defs>
		<clipPath clipPathUnits="userSpaceOnUse" id="cp1">
			<path d="m411.47 698.53c9.85 2.55 20.32 3.82 30.99 3.82 72.45 0 131.35-60.98 131.35-135.98v-135.99h90.72c24.84 0 47.62 14.45 58.7 37.61l14.78 30.39h131.35c18.06 0 32.84 15.29 32.84 33.99v67.99c0 93.92-73.48 169.98-164.19 169.98h-98.52v107.73c0 15.51-12.11 28.26-27.3 28.26-3.69 0-7.38-0.85-10.67-2.34l-202.57-89.88c-13.55-5.94-22.17-19.76-22.17-34.84 0-5.95 1.23-11.69 3.9-17z"/>
		</clipPath>
	</defs>
	<style>
		.s0 { fill: #fadb00;stroke: #000000;stroke-miterlimit:100;stroke-width: 10 } 
		.s1 { fill: #ffffff;stroke: #000000;stroke-miterlimit:100;stroke-width: 10 } 
		.s2 { fill: #000000;stroke: #000000;stroke-miterlimit:100;stroke-width: 10 } 
		.s3 { fill: #000000;stroke: #000000;stroke-miterlimit:100;stroke-width: 0 } 
		.s4 { fill: #ff0000;stroke: #000000;stroke-miterlimit:100;stroke-width: 10 } 
	</style>
	<path id="Layer 1" fill-rule="evenodd" class="s0" d="m540 1080c-298.62 0-540-241.38-540-540 0-298.62 241.38-540 540-540 298.62 0 540 241.38 540 540 0 298.62-241.38 540-540 540z"/>
	<g clip-path="url(#cp1)">
		<path id="dog" class="s1" d="m411.47 698.53c9.85 2.55 20.32 3.82 30.99 3.82 72.45 0 131.35-60.98 131.35-135.98v-135.99h90.72c24.84 0 47.62 14.45 58.7 37.61l14.78 30.39h131.35c18.06 0 32.84 15.29 32.84 33.99v67.99c0 93.92-73.48 169.98-164.19 169.98h-98.52v107.73c0 15.51-12.11 28.26-27.3 28.26-3.69 0-7.38-0.85-10.67-2.34l-202.57-89.88c-13.55-5.94-22.17-19.76-22.17-34.84 0-5.95 1.23-11.69 3.9-17z"/>
		<path id="spot" class="s2" d="m429.6 745.07c-19.04 2.18-35.88-8.67-37.67-24.29-1.79-15.62 12.15-30 31.2-32.19 19.05-2.18 35.89 8.68 37.68 24.29 1.79 15.62-12.16 30.01-31.21 32.19zm0 0c-19.04 2.18-35.88-8.67-37.67-24.29-1.79-15.62 12.15-30 31.2-32.19 19.05-2.18 35.89 8.68 37.68 24.29 1.79 15.62-12.16 30.01-31.21 32.19z"/>
		<path id="spot2" fill-rule="evenodd" class="s2" d="m604.73 919.16c-24.8 3.33-46.72-13.21-49.05-36.99-2.33-23.77 15.82-45.68 40.62-49.01 24.79-3.32 46.72 13.21 49.05 36.99 2.33 23.78-15.83 45.69-40.62 49.01z"/>
		<path id="spot2 copy" fill-rule="evenodd" class="s2" d="m749.8 814.8c-24.79 2.99-46.72-11.87-49.05-33.25-2.33-21.37 15.83-41.06 40.62-44.05 24.8-2.98 46.72 11.88 49.05 33.25 2.33 21.37-15.83 41.06-40.62 44.05z"/>
	</g>
	<path id="eye" class="s3" d="m672.33 532.37c0-9.01-3.46-17.66-9.62-24.04-6.16-6.37-14.51-9.95-23.22-9.95-8.71 0-17.06 3.58-23.22 9.95-6.16 6.38-9.62 15.03-9.62 24.04 0 9.02 3.46 17.66 9.62 24.04 6.16 6.38 14.51 9.96 23.22 9.96 8.71 0 17.06-3.58 23.22-9.96 6.16-6.38 9.62-15.02 9.62-24.04z"/>
	<path id="ear" class="s2" d="m371.39 385.15h122.26 24.45v87.69 87.68c0 48.5-43.7 87.69-97.81 87.69-54.1 0-97.81-39.19-97.81-87.69v-131.52c0-24.12 22.01-43.85 48.91-43.85z"/>
	<path id="Shape 6" fill-rule="evenodd" class="s4" d="m367.42 183.41l199.68-36.83c5.6-1.08 11.3-1.58 17.1-1.58h2.8c31.81 0 59.17 15.65 65.18 37.26l32.54 117.3c41.34 13 139.48 49.47 139.48 103.88 0 18.88-18.76 34.75-44.04 39.05l-36.38-17.66-288.9-140.06c-33.47-16.22-73.26-24.91-114.09-24.91h-11.09c-7.15 0-14.2 0.29-21.24 0.79l10.77-41.06c4.67-17.52 23.42-31.59 48.19-36.18zm-206.42 213c0-14.29 4.77-28.36 13.99-41.07l6.53-9.04c28.08-38.91 85.49-63.46 148.28-63.46h10.99c34.09 0 67.25 7.25 95.13 20.74l288.8 140.06h-497.4c-36.58 0-66.32-20.6-66.32-45.94z"/>
	<path id="shield" class="s0" d="m578.91 211.74q-1.03-0.49-2.18-0.49-1.14 0-2.17 0.49l-30.55 13.42c-3.57 1.56-6.23 5.21-6.22 9.61 0.08 16.66 6.7 47.15 34.66 61.01 2.71 1.34 5.86 1.34 8.57 0 27.96-13.86 34.58-44.35 34.66-61.01 0.01-4.4-2.65-8.05-6.22-9.61z"/>
	<path id="hat star" class="s0" d="m323.78 338.15c-1.05-3.35-3.94-5.58-7.31-5.58-3.37 0-6.25 2.23-7.31 5.58l-6.45 20.49-19.44 6.8c-3.17 1.11-5.29 4.16-5.29 7.71 0 3.55 2.12 6.59 5.29 7.71l19.44 6.8 6.45 20.49c1.06 3.35 3.94 5.58 7.31 5.58 3.37 0 6.26-2.23 7.31-5.58l6.45-20.49 19.44-6.8c3.18-1.12 5.29-4.16 5.29-7.71 0-3.55-2.11-6.6-5.29-7.71l-19.44-6.8z"/>
	<path id="spot star" class="s2" d="m583.69 646.13c-0.59-1.88-2.21-3.13-4.1-3.13-1.89 0-3.51 1.25-4.1 3.13l-3.62 11.5-10.9 3.81c-1.78 0.62-2.97 2.33-2.97 4.32 0 1.99 1.19 3.7 2.97 4.33l10.9 3.81 3.62 11.5c0.59 1.87 2.21 3.13 4.1 3.13 1.89 0 3.51-1.26 4.1-3.13l3.62-11.5 10.9-3.81c1.78-0.63 2.97-2.34 2.97-4.33 0-1.99-1.19-3.7-2.97-4.32l-10.9-3.81z"/>
	<path id="nose" fill-rule="evenodd" class="s2" d="m848.29 507.2l16.02-7c13.08-5.72 28.63 7.61 27.99 23.99l-0.79 20.07c-0.64 16.38-16.99 23.52-29.43 12.86l-15.24-13.06c-12.44-10.66-11.63-31.14 1.45-36.86z"/>
</svg>