<svg version="1.2" xmlns="http://www.w3.org/2000/svg" viewBox="0 0 1080 1080" width="1080" height="1080">
	<style>
		.s0 { fill: #fadb00;stroke: #000000;stroke-miterlimit:100;stroke-width: 10 } 
		.s1 { fill: #ffffff;stroke: #000000;stroke-miterlimit:100;stroke-width: 10 } 
		.s2 { fill: #000000;stroke: #000000;stroke-miterlimit:100;stroke-width: 0 } 
		.s3 { fill: #000000;stroke: #000000;stroke-miterlimit:100;stroke-width: 10 } 
		.s4 { fill: #ff0000;stroke: #000000;stroke-miterlimit:100;stroke-width: 10 } 
	</style>
	<path id="Layer 1" fill-rule="evenodd" class="s0" d="m540 1080c-298.62 0-540-241.38-540-540 0-298.62 241.38-540 540-540 298.62 0 540 241.38 540 540 0 298.62-241.38 540-540 540z"/>
	<path id="dog" class="s1" d="m404.97 715.88c8.96 2.32 18.49 3.48 28.2 3.48 65.92 0 119.51-55.49 119.51-123.73v-123.73h82.55c22.59 0 43.32 13.14 53.41 34.22l13.44 27.64h119.52c16.43 0 29.88 13.92 29.88 30.94v61.86c0 85.45-66.86 154.66-149.4 154.66h-89.64v98.02c0 14.12-11.01 25.72-24.83 25.72-3.37 0-6.73-0.78-9.72-2.13l-184.31-81.78c-12.33-5.41-20.17-17.98-20.17-31.71 0-5.41 1.12-10.63 3.55-15.46z"/>
	<path id="eye" class="s2" d="m642.32 564.7c0-8.21-3.15-16.08-8.75-21.88-5.6-5.8-13.2-9.06-21.13-9.06-7.92 0-15.52 3.26-21.12 9.06-5.61 5.8-8.76 13.67-8.76 21.88 0 8.2 3.15 16.07 8.76 21.87 5.6 5.8 13.2 9.06 21.12 9.06 7.93 0 15.53-3.26 21.13-9.06 5.6-5.8 8.75-13.67 8.75-21.87z"/>
	<path id="ear" class="s3" d="m368.5 430.74h111.25 22.24v79.79 79.78c0 44.13-39.77 79.78-88.99 79.78-49.23 0-89-35.65-89-79.78v-119.67c0-21.94 20.02-39.9 44.5-39.9z"/>
	<path id="Shape 6" fill-rule="evenodd" class="s4" d="m364.89 247.18l181.69-33.51c5.09-0.98 10.28-1.44 15.56-1.44h2.54c28.95 0 53.84 14.24 59.31 33.9l29.6 106.74c37.62 11.82 126.91 45 126.91 94.51 0 17.18-17.06 31.62-40.07 35.54l-33.09-16.07-262.87-127.44c-30.46-14.76-66.66-22.67-103.81-22.67h-10.09c-6.51 0-12.92 0.27-19.33 0.72l9.81-37.36c4.24-15.94 21.3-28.74 43.84-32.92zm-187.82 193.8c0-13 4.34-25.8 12.73-37.36l5.94-8.23c25.55-35.4 77.78-57.74 134.92-57.74h10c31.02 0 61.19 6.59 86.55 18.87l262.78 127.44h-452.58c-33.28 0-60.34-18.74-60.34-41.8z"/>
	<path id="shield" class="s0" d="m557.32 272.95q-0.94-0.43-1.98-0.44-1.04 0.01-1.98 0.44l-27.8 12.22c-3.25 1.42-5.67 4.74-5.65 8.74 0.07 15.16 6.09 42.9 31.53 55.51 2.47 1.22 5.33 1.22 7.8 0 25.44-12.61 31.46-40.35 31.53-55.51 0.02-4-2.4-7.32-5.65-8.74z"/>
	<path id="hat star" class="s0" d="m325.18 387.97c-0.96-3.04-3.59-5.07-6.65-5.07-3.06 0-5.69 2.03-6.65 5.07l-5.87 18.65-17.69 6.18c-2.89 1.02-4.81 3.79-4.81 7.02 0 3.23 1.92 6 4.81 7.02l17.69 6.18 5.87 18.65c0.96 3.04 3.59 5.08 6.65 5.08 3.06 0 5.69-2.04 6.65-5.08l5.87-18.65 17.69-6.18c2.89-1.02 4.81-3.79 4.81-7.02 0-3.23-1.92-6-4.81-7.02l-17.69-6.18z"/>
	<path id="nose" fill-rule="evenodd" class="s3" d="m802.42 541.8l14.58-6.38c11.9-5.2 26.05 6.93 25.47 21.83l-0.72 18.26c-0.58 14.91-15.46 21.41-26.77 11.71l-13.87-11.89c-11.32-9.7-10.59-28.33 1.31-33.53z"/>
</svg>